<mxfile host="app.diagrams.net" modified="2024-03-19T06:16:33.309Z" agent="Mozilla/5.0 (Windows NT 10.0; Win64; x64) AppleWebKit/537.36 (KHTML, like Gecko) Chrome/122.0.0.0 Safari/537.36" version="24.0.7" etag="L7JFlfhMigRd-3NgroZs" type="github">
  <diagram name="Page-1" id="YHW1WsY-CA-lZRykTnsN">
    <mxGraphModel>
      <root>
        <mxCell id="0" />
        <mxCell id="1" parent="0" />
      </root>
    </mxGraphModel>
  </diagram>
</mxfile>
